<svg width="56" height="45" viewBox="0 0 56 45" fill="none" xmlns="http://www.w3.org/2000/svg">
<rect x="0.375" y="0.875" width="55.25" height="43.25" rx="1.625" fill="white" stroke="#A3A3A3" stroke-width="0.75"/>
<path d="M15.0193 38.335V36.3484C15.0309 36.1813 15.0066 36.0137 14.9485 35.8568C14.8901 35.6997 14.7991 35.5569 14.6814 35.4378C14.5636 35.3189 14.4217 35.2263 14.2653 35.1664C14.1089 35.1064 13.9417 35.0805 13.7744 35.0903C13.5555 35.0759 13.337 35.1205 13.1412 35.2196C12.9455 35.3186 12.78 35.4683 12.6619 35.6531C12.5543 35.4739 12.4003 35.3269 12.2162 35.228C12.032 35.1289 11.8246 35.0814 11.6157 35.0903C11.4336 35.081 11.2523 35.1196 11.0897 35.2021C10.9271 35.2845 10.7888 35.4081 10.6887 35.5605V35.1698H10V38.335H10.6953V36.5934C10.6805 36.4852 10.6898 36.375 10.7225 36.2708C10.7553 36.1666 10.8106 36.0708 10.8846 35.9905C10.9587 35.9102 11.0495 35.8472 11.1507 35.806C11.2519 35.7649 11.3609 35.7466 11.47 35.7524C11.9269 35.7524 12.1587 36.0505 12.1587 36.5869V38.3482H12.854V36.5934C12.8398 36.4852 12.8495 36.3754 12.8825 36.2714C12.9154 36.1674 12.9707 36.072 13.0447 35.9918C13.1186 35.9115 13.2092 35.8486 13.3101 35.8071C13.4111 35.7658 13.5198 35.7471 13.6287 35.7524C14.0989 35.7524 14.324 36.0505 14.324 36.5869V38.3482L15.0193 38.335ZM25.3062 35.1698H24.1738V34.2096H23.4785V35.1698H22.8496V35.7988H23.4918V37.2555C23.4918 37.9905 23.7764 38.4276 24.591 38.4276C24.8952 38.4287 25.1937 38.3437 25.4517 38.1826L25.2531 37.5933C25.0685 37.7035 24.8588 37.7649 24.6439 37.7722C24.3128 37.7722 24.1871 37.5601 24.1871 37.2423V35.7988H25.3127L25.3062 35.1698ZM31.1796 35.0903C31.0118 35.0854 30.8456 35.1258 30.6986 35.2073C30.5519 35.2889 30.4297 35.4086 30.3453 35.5538V35.1698H29.6632V38.335H30.3518V36.5602C30.3518 36.0373 30.5771 35.7459 31.0141 35.7459C31.1613 35.7439 31.3075 35.7709 31.4445 35.8252L31.6563 35.1631C31.499 35.1069 31.3334 35.0777 31.1663 35.077L31.1796 35.0903ZM22.2999 35.4213C21.91 35.1896 21.4619 35.0747 21.0086 35.0903C20.2073 35.0903 19.6844 35.4744 19.6844 36.1034C19.6844 36.6198 20.0683 36.9377 20.7769 37.037L21.1079 37.0834C21.4854 37.1365 21.6643 37.2358 21.6643 37.4144C21.6643 37.6594 21.4126 37.7986 20.9423 37.7986C20.5643 37.8095 20.1934 37.693 19.8895 37.4675L19.5584 38.0039C19.9596 38.2839 20.44 38.4278 20.9291 38.4144C21.8429 38.4144 22.3728 37.984 22.3728 37.3815C22.3728 36.7788 21.9555 36.5338 21.2669 36.4345L20.9358 36.3881C20.6379 36.3484 20.3994 36.2888 20.3994 36.0769C20.3994 35.8651 20.6245 35.7062 21.0019 35.7062C21.3508 35.7102 21.6929 35.8037 21.9953 35.9776L22.2999 35.4213ZM40.7447 35.0903C40.5767 35.0854 40.4106 35.1258 40.2638 35.2073C40.117 35.2889 39.9949 35.4086 39.9103 35.5538V35.1698H39.2284V38.335H39.917V36.5602C39.917 36.0373 40.142 35.7459 40.5791 35.7459C40.7264 35.7439 40.8727 35.7709 41.0095 35.8252L41.2215 35.1631C41.0642 35.1069 40.8984 35.0777 40.7315 35.077L40.7447 35.0903ZM31.8716 36.7458C31.8635 36.9681 31.9017 37.1897 31.9841 37.3965C32.0666 37.6033 32.1911 37.7906 32.3502 37.9465C32.5091 38.1023 32.6988 38.2232 32.907 38.3015C33.1154 38.3797 33.338 38.4138 33.5601 38.4011C33.9736 38.4222 34.3799 38.2875 34.699 38.0237L34.368 37.4675C34.1299 37.6489 33.8396 37.749 33.5402 37.7522C33.2858 37.7316 33.0482 37.616 32.8752 37.4282C32.7019 37.2405 32.6057 36.9944 32.6057 36.7391C32.6057 36.4838 32.7019 36.2377 32.8752 36.0499C33.0482 35.8622 33.2858 35.7466 33.5402 35.7259C33.8396 35.7294 34.1299 35.8292 34.368 36.0106L34.699 35.4545C34.3799 35.1906 33.9736 35.056 33.5601 35.077C33.338 35.0645 33.1154 35.0984 32.907 35.1767C32.6988 35.255 32.5091 35.3758 32.3502 35.5317C32.1911 35.6875 32.0666 35.8749 31.9841 36.0817C31.9017 36.2884 31.8635 36.51 31.8716 36.7324V36.7458ZM38.321 36.7458V35.1698H37.6325V35.5538C37.5156 35.4034 37.3644 35.2829 37.1917 35.2022C37.0191 35.1216 36.8297 35.0832 36.6392 35.0903C36.2002 35.0903 35.779 35.2648 35.4686 35.5752C35.1582 35.8856 34.9837 36.3067 34.9837 36.7458C34.9837 37.1847 35.1582 37.6058 35.4686 37.9162C35.779 38.2268 36.2002 38.4011 36.6392 38.4011C36.8297 38.4082 37.0191 38.3698 37.1917 38.2891C37.3644 38.2087 37.5156 38.0882 37.6325 37.9376V38.3218H38.321V36.7458ZM35.7586 36.7458C35.7694 36.5593 35.8347 36.3803 35.9461 36.2306C36.0576 36.0809 36.2105 35.9671 36.3857 35.9032C36.5611 35.8392 36.7512 35.8278 36.933 35.8705C37.1146 35.9133 37.2798 36.0084 37.4081 36.1438C37.5366 36.2794 37.6225 36.4493 37.6555 36.6331C37.6884 36.8168 37.6671 37.006 37.5937 37.1778C37.5205 37.3494 37.3985 37.4958 37.243 37.5991C37.0876 37.7024 36.9053 37.7578 36.7186 37.7587C36.5876 37.7606 36.4575 37.735 36.3368 37.6839C36.2161 37.633 36.1072 37.5574 36.017 37.4623C35.9267 37.3672 35.8573 37.2544 35.8127 37.131C35.7683 37.0076 35.7499 36.8764 35.7586 36.7458ZM27.4483 35.0903C27.0092 35.0964 26.5906 35.2767 26.2846 35.5915C25.9783 35.9062 25.8098 36.3299 25.816 36.7688C25.8221 37.2079 26.0024 37.6266 26.3172 37.9327C26.6321 38.2388 27.0556 38.4073 27.4947 38.4011C27.9709 38.4256 28.4393 38.2721 28.809 37.9708L28.4779 37.4608C28.2164 37.6705 27.8926 37.787 27.5576 37.7919C27.33 37.8115 27.1036 37.7415 26.9268 37.5969C26.7499 37.4521 26.6365 37.2443 26.6106 37.0172H28.9614C28.9614 36.9312 28.9614 36.8451 28.9614 36.7523C28.9614 35.7591 28.3455 35.097 27.4583 35.097L27.4483 35.0903ZM27.4483 35.7062C27.5512 35.7038 27.6538 35.7219 27.7498 35.7595C27.8459 35.7968 27.9336 35.8528 28.008 35.9242C28.0823 35.9956 28.142 36.0807 28.1835 36.1752C28.225 36.2696 28.2472 36.3712 28.2494 36.4741H26.5941C26.606 36.2616 26.7008 36.0623 26.8579 35.9187C27.0152 35.7752 27.2223 35.6988 27.4351 35.7062H27.4483ZM44.7011 36.7523V33.8984H44.0389V35.5538C43.9221 35.4034 43.7709 35.2829 43.5982 35.2022C43.4255 35.1216 43.2362 35.0832 43.0457 35.0903C42.6067 35.0903 42.1857 35.2648 41.8751 35.5752C41.5647 35.8856 41.3904 36.3067 41.3904 36.7458C41.3904 37.1847 41.5647 37.6058 41.8751 37.9162C42.1857 38.2268 42.6067 38.4011 43.0457 38.4011C43.2362 38.4082 43.4255 38.3698 43.5982 38.2891C43.7709 38.2087 43.9221 38.0882 44.0389 37.9376V38.3218H44.7011V36.7523ZM45.8499 37.8747C45.8931 37.8742 45.9358 37.8822 45.9759 37.8979C46.0139 37.9133 46.0487 37.9358 46.0784 37.9641C46.1076 37.9927 46.1312 38.0264 46.148 38.0634C46.1647 38.1021 46.1734 38.1438 46.1734 38.1859C46.1734 38.2281 46.1647 38.2698 46.148 38.3084C46.1312 38.3455 46.1076 38.3792 46.0784 38.4078C46.0487 38.4359 46.0139 38.4584 45.9759 38.474C45.9362 38.4916 45.8934 38.5004 45.8499 38.5004C45.7872 38.5001 45.726 38.4818 45.6733 38.4477C45.6203 38.4136 45.5785 38.3654 45.552 38.3084C45.5355 38.2698 45.5268 38.2281 45.5268 38.1859C45.5268 38.1438 45.5355 38.1021 45.552 38.0634C45.5689 38.0264 45.5924 37.9927 45.6216 37.9641C45.6513 37.9358 45.6861 37.9133 45.7242 37.8979C45.7673 37.8807 45.8135 37.8729 45.8599 37.8747H45.8499ZM45.8499 38.4343C45.8831 38.4345 45.9157 38.4278 45.946 38.4144C45.9746 38.4017 46.0003 38.3837 46.0223 38.3614C46.0636 38.3161 46.0866 38.2571 46.0866 38.1958C46.0866 38.1346 46.0636 38.0755 46.0223 38.0304C46.0003 38.0079 45.9746 37.99 45.946 37.9773C45.9157 37.9642 45.8831 37.9574 45.8499 37.9575C45.817 37.9577 45.7843 37.9644 45.7541 37.9773C45.7242 37.9896 45.6972 38.0075 45.6745 38.0304C45.6332 38.0755 45.6102 38.1346 45.6102 38.1958C45.6102 38.2571 45.6332 38.3161 45.6745 38.3614C45.6974 38.3841 45.7244 38.402 45.7541 38.4144C45.7874 38.4289 45.8237 38.4356 45.8599 38.4343H45.8499ZM45.8699 38.0403C45.9009 38.0387 45.9313 38.0481 45.9559 38.0668C45.9661 38.0751 45.9741 38.0858 45.9793 38.098C45.9844 38.1099 45.9868 38.1232 45.9859 38.1362C45.9862 38.1473 45.9844 38.1583 45.9804 38.1685C45.9764 38.1788 45.9704 38.188 45.9627 38.1958C45.9434 38.2132 45.919 38.2237 45.8931 38.2257L45.9891 38.335H45.913L45.8235 38.2257H45.7938V38.335H45.7309V38.0436L45.8699 38.0403ZM45.797 38.0965V38.1761H45.8699C45.8829 38.1799 45.8967 38.1799 45.9096 38.1761C45.9119 38.1714 45.9132 38.1663 45.9132 38.161C45.9132 38.156 45.9119 38.1509 45.9096 38.1462C45.9119 38.1416 45.9132 38.1366 45.9132 38.1313C45.9132 38.1261 45.9119 38.121 45.9096 38.1165C45.8967 38.1125 45.8829 38.1125 45.8699 38.1165L45.797 38.0965ZM42.1551 36.7523C42.1661 36.566 42.2314 36.387 42.3428 36.2373C42.4543 36.0876 42.607 35.9736 42.7822 35.9097C42.9577 35.8457 43.1479 35.8345 43.3295 35.8772C43.5113 35.92 43.6763 36.015 43.8048 36.1505C43.9331 36.2859 44.0192 36.456 44.0522 36.6396C44.085 36.8233 44.0636 37.0127 43.9902 37.1843C43.917 37.3559 43.795 37.5025 43.6397 37.6056C43.4843 37.7089 43.302 37.7645 43.1153 37.7654C42.9841 37.7671 42.8542 37.7417 42.7333 37.6906C42.6126 37.6395 42.5037 37.5641 42.4135 37.469C42.3234 37.3739 42.2538 37.261 42.2094 37.1377C42.1649 37.0143 42.1464 36.8831 42.1551 36.7523ZM18.903 36.7523V35.1698H18.2142V35.5538C18.0973 35.4034 17.9462 35.2829 17.7735 35.2022C17.6008 35.1216 17.4115 35.0832 17.221 35.0903C16.7819 35.0903 16.3608 35.2648 16.0504 35.5752C15.74 35.8856 15.5657 36.3067 15.5657 36.7458C15.5657 37.1847 15.74 37.6058 16.0504 37.9162C16.3608 38.2268 16.7819 38.4011 17.221 38.4011C17.4115 38.4082 17.6008 38.3698 17.7735 38.2891C17.9462 38.2087 18.0973 38.0882 18.2142 37.9376V38.3218H18.903V36.7523ZM16.3403 36.7523C16.3514 36.566 16.4164 36.387 16.5279 36.2373C16.6393 36.0876 16.7923 35.9736 16.9675 35.9097C17.1429 35.8457 17.333 35.8345 17.5147 35.8772C17.6965 35.92 17.8616 36.015 17.9901 36.1505C18.1184 36.2859 18.2042 36.456 18.2372 36.6396C18.2702 36.8233 18.2488 37.0127 18.1754 37.1843C18.1022 37.3559 17.9803 37.5025 17.8248 37.6056C17.6693 37.7089 17.487 37.7645 17.3004 37.7654C17.1688 37.768 17.038 37.7432 16.9166 37.6926C16.795 37.642 16.6853 37.5667 16.5944 37.4713C16.5034 37.3762 16.4333 37.2631 16.3885 37.1392C16.3436 37.0154 16.3249 36.8837 16.3336 36.7523H16.3403Z" fill="#231F20"/>
<path d="M32.5014 11.0493H22.0723V29.7921H32.5014V11.0493Z" fill="#FF5F00"/>
<path d="M22.7316 20.4217C22.7296 18.6164 23.1386 16.8343 23.9272 15.2104C24.716 13.5865 25.864 12.1633 27.2839 11.0487C25.5257 9.66681 23.414 8.8075 21.1904 8.56897C18.9668 8.33044 16.7209 8.72233 14.7094 9.69983C12.698 10.6773 11.0021 12.201 9.81565 14.0967C8.6292 15.9924 8 18.1837 8 20.4201C8 22.6564 8.6292 24.8478 9.81565 26.7434C11.0021 28.6392 12.698 30.1628 14.7094 31.1403C16.7209 32.1179 18.9668 32.5097 21.1904 32.2712C23.414 32.0327 25.5257 31.1734 27.2839 29.7915C25.8643 28.6771 24.7167 27.2546 23.9279 25.6313C23.1393 24.0079 22.7301 22.2266 22.7316 20.4217Z" fill="#EB001B"/>
<path d="M46.5709 20.4222C46.5707 22.6587 45.9414 24.8502 44.7548 26.7458C43.5681 28.6417 41.872 30.1653 39.8604 31.1427C37.8486 32.12 35.6025 32.5117 33.3787 32.2727C31.1551 32.0339 29.0433 31.1742 27.2852 29.792C28.7042 28.6766 29.8514 27.2536 30.6404 25.6301C31.4294 24.0069 31.8393 22.2254 31.8393 20.4205C31.8393 18.6156 31.4294 16.8342 30.6404 15.2108C29.8514 13.5874 28.7042 12.1644 27.2852 11.0491C29.0433 9.66678 31.1551 8.80705 33.3787 8.56818C35.6025 8.32931 37.8486 8.72094 39.8604 9.69829C41.872 10.6757 43.5681 12.1993 44.7548 14.0951C45.9414 15.9909 46.5707 18.1823 46.5709 20.4189V20.4222Z" fill="#F79E1B"/>
<path d="M45.4356 27.8053V27.4212H45.5912V27.3418H45.1973V27.4212H45.3662V27.8053H45.4356ZM46.2004 27.8053V27.3418H46.0812L45.9422 27.6729L45.803 27.3418H45.6972V27.8053H45.7833V27.4576L45.9123 27.7589H46.0018L46.1309 27.4576V27.8086L46.2004 27.8053Z" fill="#F79E1B"/>
</svg>
