<svg width="56" height="44" viewBox="0 0 56 44" fill="none" xmlns="http://www.w3.org/2000/svg">
<rect x="0.375" y="0.375" width="55.25" height="43.25" rx="1.625" fill="white" stroke="#A3A3A3" stroke-width="0.75"/>
<path d="M12.8116 16.8332C12.2481 16.191 11.2295 15.9156 9.92656 15.9156H6.14483C5.87824 15.9156 5.6517 16.1095 5.60996 16.3724L4.03534 26.3591C4.00403 26.556 4.15651 26.7344 4.35612 26.7344H6.6908L7.27716 23.0153L7.25898 23.1317C7.30072 22.8688 7.52557 22.6749 7.79182 22.6749H8.90127C11.0808 22.6749 12.7873 21.7897 13.2859 19.2288C13.3007 19.1531 13.3135 19.0794 13.3246 19.0073C13.473 18.0608 13.3236 17.4165 12.8116 16.8332Z" fill="#003087"/>
<path d="M41.3902 21.5831C41.2475 22.5203 40.5318 22.5203 39.8393 22.5203H39.4454L39.7218 20.7705C39.7383 20.6648 39.8295 20.587 39.9366 20.587H40.1174C40.5887 20.587 41.0337 20.587 41.2633 20.8553C41.4006 21.0159 41.442 21.2542 41.3902 21.5831ZM41.0889 19.1378H38.478C38.2992 19.1378 38.1474 19.2677 38.1194 19.4441L37.0637 26.1392C37.0429 26.2711 37.1452 26.3906 37.2785 26.3906H38.6183C38.7432 26.3906 38.8496 26.2997 38.8691 26.1765L39.1687 24.2782C39.1963 24.1018 39.3485 23.9719 39.5269 23.9719H40.353C42.0729 23.9719 43.0656 23.1397 43.3248 21.4899C43.4417 20.7688 43.3296 20.2019 42.9919 19.805C42.6206 19.3687 41.9625 19.1378 41.0889 19.1378Z" fill="#009CDE"/>
<path d="M22.7711 21.5831C22.6283 22.5203 21.9126 22.5203 21.2202 22.5203H20.8263L21.1027 20.7705C21.1192 20.6648 21.2104 20.587 21.3175 20.587H21.4982C21.9695 20.587 22.4146 20.587 22.6441 20.8553C22.7815 21.0159 22.8229 21.2542 22.7711 21.5831ZM22.4698 19.1378H19.8588C19.6801 19.1378 19.5282 19.2677 19.5003 19.4441L18.4446 26.1392C18.4237 26.2711 18.5257 26.3906 18.6594 26.3906H19.9063C20.0847 26.3906 20.2365 26.2607 20.2645 26.0846L20.5496 24.2782C20.5772 24.1018 20.7294 23.9719 20.9078 23.9719H21.7339C23.4538 23.9719 24.4465 23.1397 24.7057 21.4899C24.8225 20.7688 24.7104 20.2019 24.3728 19.805C24.0015 19.3687 23.3433 19.1378 22.4698 19.1378Z" fill="#003087"/>
<path d="M28.5292 23.9863C28.4083 24.7006 27.8415 25.1803 27.118 25.1803C26.7555 25.1803 26.4649 25.0635 26.2785 24.8427C26.0936 24.6239 26.024 24.3118 26.0825 23.9647C26.195 23.2565 26.7713 22.7616 27.4836 22.7616C27.8388 22.7616 28.1269 22.8794 28.3171 23.1023C28.5087 23.3268 28.5841 23.6406 28.5292 23.9863ZM30.2716 21.5527H29.0214C28.9143 21.5527 28.8231 21.6305 28.8063 21.7365L28.7514 22.086L28.6642 21.9594C28.3932 21.5665 27.7896 21.4349 27.187 21.4349C25.8058 21.4349 24.6259 22.4819 24.3963 23.9499C24.2768 24.6825 24.4465 25.3823 24.8619 25.8708C25.2433 26.3195 25.7876 26.5063 26.4363 26.5063C27.5499 26.5063 28.1673 25.7913 28.1673 25.7913L28.1114 26.1387C28.0906 26.2707 28.1926 26.3902 28.3265 26.3902H29.4523C29.631 26.3902 29.7828 26.2606 29.8108 26.0842L30.4867 21.8042C30.5076 21.6723 30.4053 21.5527 30.2716 21.5527Z" fill="#003087"/>
<path d="M47.1464 23.9863C47.0255 24.7006 46.4586 25.1803 45.7352 25.1803C45.3727 25.1803 45.0821 25.0635 44.8956 24.8427C44.7105 24.6239 44.6411 24.3118 44.6997 23.9647C44.8122 23.2565 45.3885 22.7616 46.1008 22.7616C46.4559 22.7616 46.7441 22.8794 46.9343 23.1023C47.1259 23.3268 47.2013 23.6406 47.1464 23.9863ZM48.8888 21.5527H47.6385C47.5315 21.5527 47.4403 21.6305 47.4234 21.7365L47.3686 22.086L47.281 21.9594C47.0104 21.5665 46.4068 21.4349 45.8042 21.4349C44.423 21.4349 43.2431 22.4819 43.0135 23.9499C42.894 24.6825 43.0637 25.3823 43.4791 25.8708C43.8605 26.3195 44.4048 26.5063 45.0535 26.5063C46.1671 26.5063 46.7845 25.7913 46.7845 25.7913L46.7286 26.1387C46.7078 26.2707 46.8098 26.3902 46.9437 26.3902H48.0694C48.2482 26.3902 48.4 26.2606 48.428 26.0842L49.1039 21.8042C49.1248 21.6723 49.0225 21.5527 48.8888 21.5527Z" fill="#009CDE"/>
<path d="M36.929 21.5526H35.6724C35.5522 21.5526 35.4398 21.6122 35.3724 21.7119L33.6387 24.2649L32.9042 21.8115C32.8581 21.658 32.7167 21.5526 32.5565 21.5526H31.3213C31.1722 21.5526 31.0672 21.6994 31.1153 21.8405L32.4989 25.9023L31.1975 27.7387C31.0955 27.8827 31.1985 28.082 31.3752 28.082H32.6305C32.7494 28.082 32.8608 28.0238 32.9288 27.9262L37.1078 21.8943C37.2078 21.7499 37.1048 21.5526 36.929 21.5526Z" fill="#003087"/>
<path d="M50.3613 19.3216L49.2898 26.1392C49.269 26.2711 49.371 26.3906 49.5046 26.3906H50.5825C50.7609 26.3906 50.9131 26.2607 50.9407 26.0843L51.9974 19.3893C52.0183 19.2573 51.9163 19.1378 51.7823 19.1378H50.5764C50.4691 19.1378 50.3778 19.2156 50.3613 19.3216Z" fill="#009CDE"/>
<path d="M12.8116 16.8332C12.2481 16.191 11.2295 15.9156 9.92656 15.9156H6.14483C5.87824 15.9156 5.6517 16.1095 5.60996 16.3724L4.03534 26.3591C4.00403 26.556 4.15651 26.7344 4.35612 26.7344H6.6908L7.27716 23.0153L7.25898 23.1317C7.30072 22.8688 7.52557 22.6749 7.79182 22.6749H8.90127C11.0808 22.6749 12.7873 21.7897 13.2859 19.2288C13.3007 19.1531 13.3135 19.0794 13.3246 19.0073C13.473 18.0608 13.3236 17.4165 12.8116 16.8332Z" fill="#003087"/>
<path d="M7.90728 19.0201C7.93219 18.8619 8.03384 18.7323 8.1705 18.6667C8.23277 18.6371 8.30211 18.6206 8.37482 18.6206H11.3396C11.6907 18.6206 12.0182 18.6435 12.3174 18.6916C12.4033 18.7054 12.4864 18.7212 12.5672 18.7394C12.648 18.7572 12.7264 18.7774 12.8025 18.7996C12.8405 18.8108 12.8779 18.8222 12.9146 18.8343C13.0617 18.8835 13.1987 18.9407 13.3246 19.0077C13.473 18.0608 13.3236 17.4169 12.8116 16.8335C12.2478 16.1913 11.2295 15.916 9.92656 15.916H6.14449C5.87824 15.916 5.6517 16.1099 5.60997 16.3727L4.03534 26.3591C4.00403 26.5563 4.15652 26.7344 4.35578 26.7344H6.6908L7.27716 23.0153L7.90728 19.0201Z" fill="#003087"/>
<path d="M13.3239 19.0073C13.3125 19.0797 13.3 19.1531 13.2852 19.2288C12.7867 21.7893 11.0801 22.6749 8.90064 22.6749H7.79086C7.52461 22.6749 7.29976 22.8688 7.25836 23.1317L6.69017 26.734L6.52894 27.7559C6.50168 27.9283 6.63497 28.0845 6.80933 28.0845H8.77745C9.01037 28.0845 9.20863 27.9148 9.24499 27.6849L9.26417 27.5846L9.63511 25.2338L9.65901 25.1039C9.69536 24.874 9.89362 24.7043 10.1265 24.7043H10.4211C12.3276 24.7043 13.8204 23.9298 14.2567 21.6897C14.4388 20.7536 14.3445 19.972 13.8628 19.423C13.7168 19.2567 13.5353 19.1194 13.3239 19.0073Z" fill="#009CDE"/>
<path d="M12.8038 18.799C12.7277 18.7768 12.6493 18.7566 12.5685 18.7387C12.4877 18.7209 12.4042 18.7051 12.3187 18.6913C12.0191 18.6428 11.6919 18.6199 11.3405 18.6199H8.37571C8.30266 18.6199 8.23332 18.6364 8.17138 18.6664C8.03437 18.732 7.93304 18.8613 7.90813 19.0198L7.27794 23.0154L7.25977 23.1318C7.30117 22.8689 7.52604 22.675 7.79232 22.675H8.90221C11.0819 22.675 12.7887 21.7897 13.2872 19.2285C13.302 19.1528 13.3145 19.0794 13.3259 19.007C13.1997 18.9404 13.063 18.8828 12.9159 18.834C12.8792 18.8219 12.8419 18.8101 12.8038 18.799Z" fill="#012169"/>
</svg>
