<svg viewBox="0 0 200 128" fill="none" xmlns="http://www.w3.org/2000/svg">
<path d="M0 16C0 7.16344 7.46192 0 16.6667 0H183.333C192.538 0 200 7.16344 200 16V112C200 120.837 192.538 128 183.333 128H16.6667C7.46192 128 0 120.837 0 112V16Z" fill="white"/>
<path fill-rule="evenodd" clip-rule="evenodd" d="M183.333 5.33333H16.6667C10.5302 5.33333 5.55556 10.109 5.55556 16V112C5.55556 117.891 10.5302 122.667 16.6667 122.667H183.333C189.47 122.667 194.444 117.891 194.444 112V16C194.444 10.109 189.47 5.33333 183.333 5.33333ZM16.6667 0C7.46192 0 0 7.16344 0 16V112C0 120.837 7.46192 128 16.6667 128H183.333C192.538 128 200 120.837 200 112V16C200 7.16344 192.538 0 183.333 0H16.6667Z" fill="#DDDDDD"/>
<path fill-rule="evenodd" clip-rule="evenodd" d="M84.4293 84.0868C98.9376 91.0257 116.843 87.5918 127.66 74.7031C140.481 59.4262 138.49 36.6518 123.212 23.8349L113.056 35.9367C124.991 45.9497 126.547 63.7424 116.53 75.677C108.544 85.1934 95.3936 88.371 84.4293 84.0868Z" fill="url(#paint0_linear)"/>
<path fill-rule="evenodd" clip-rule="evenodd" d="M84.4292 84.0868C98.9375 91.0257 116.843 87.5918 127.66 74.7031C128.985 73.1245 130.151 71.4659 131.161 69.7465C132.869 59.1313 129.113 47.911 120.276 40.4977C118.031 38.6144 115.6 37.0966 113.057 35.9379C124.991 45.9513 126.547 63.7428 116.53 75.677C108.544 85.1934 95.3935 88.371 84.4292 84.0868Z" fill="url(#paint1_linear)"/>
<path fill-rule="evenodd" clip-rule="evenodd" d="M115.571 18.8976C101.062 11.9587 83.1576 15.3926 72.3403 28.2813C59.5189 43.5582 61.5103 66.3326 76.788 79.1495L86.9447 67.0477C75.009 57.0347 73.453 39.242 83.4697 27.307C91.4565 17.7906 104.606 14.6134 115.571 18.8976" fill="url(#paint2_linear)"/>
<path fill-rule="evenodd" clip-rule="evenodd" d="M115.571 18.8976C101.063 11.9587 83.1576 15.3926 72.3403 28.2813C71.0152 29.8599 69.8491 31.5185 68.839 33.2379C67.1307 43.8531 70.8875 55.0729 79.7245 62.4867C81.9697 64.37 84.4001 65.8878 86.9431 67.0465C75.009 57.0331 73.4535 39.2416 83.4698 27.307C91.4565 17.7906 104.607 14.6134 115.571 18.8976" fill="url(#paint3_linear)"/>
<path d="M129.572 98.8119C129.572 98.4629 129.636 98.1356 129.765 97.83C129.894 97.5245 130.068 97.2581 130.289 97.0307C130.51 96.8033 130.769 96.6242 131.065 96.4933C131.362 96.3622 131.68 96.2968 132.021 96.2968C132.366 96.2968 132.689 96.3622 132.99 96.4933C133.291 96.6242 133.553 96.8033 133.776 97.0307C133.999 97.2581 134.175 97.5245 134.304 97.83C134.433 98.1356 134.497 98.4629 134.497 98.8119C134.497 99.1611 134.433 99.4885 134.304 99.794C134.175 100.099 133.999 100.366 133.776 100.593C133.553 100.821 133.291 101 132.99 101.131C132.689 101.262 132.366 101.327 132.021 101.327C131.68 101.327 131.362 101.262 131.065 101.131C130.769 101 130.51 100.821 130.289 100.593C130.068 100.366 129.894 100.099 129.765 99.794C129.636 99.4885 129.572 99.1611 129.572 98.8119V98.8119ZM130.075 98.8119C130.075 99.1014 130.125 99.3701 130.224 99.6182C130.322 99.8662 130.459 100.082 130.634 100.266C130.809 100.45 131.015 100.594 131.251 100.7C131.488 100.806 131.745 100.859 132.021 100.859C132.301 100.859 132.561 100.806 132.8 100.7C133.039 100.594 133.247 100.45 133.425 100.266C133.602 100.082 133.741 99.8662 133.842 99.6182C133.943 99.3701 133.994 99.1014 133.994 98.8119C133.994 98.5226 133.943 98.2539 133.842 98.0057C133.741 97.7576 133.602 97.5417 133.425 97.358C133.247 97.1743 133.039 97.0295 132.8 96.9239C132.561 96.8182 132.301 96.7654 132.021 96.7654C131.745 96.7654 131.488 96.8182 131.251 96.9239C131.015 97.0295 130.809 97.1743 130.634 97.358C130.459 97.5417 130.322 97.7576 130.224 98.0057C130.125 98.2539 130.075 98.5226 130.075 98.8119V98.8119ZM131.179 97.7301C131.179 97.5786 131.255 97.5027 131.407 97.5027H132.186C132.435 97.5027 132.632 97.5739 132.78 97.7163C132.927 97.8588 133 98.0516 133 98.2952C133 98.3962 132.985 98.4858 132.956 98.5639C132.926 98.642 132.888 98.7098 132.842 98.7672C132.796 98.8247 132.745 98.8716 132.69 98.9084C132.635 98.9452 132.58 98.9705 132.524 98.9843V98.9981C132.529 99.0027 132.536 99.0118 132.545 99.0256C132.554 99.0349 132.563 99.0497 132.573 99.0705C132.582 99.0911 132.596 99.1152 132.614 99.1427L132.973 99.8387C133.014 99.9168 133.023 99.9799 133 100.028C132.977 100.076 132.927 100.101 132.849 100.101H132.766C132.637 100.101 132.547 100.045 132.497 99.9352L132.097 99.0946H131.669V99.88C131.669 100.027 131.598 100.101 131.455 100.101H131.393C131.25 100.101 131.179 100.027 131.179 99.88V97.7301ZM132.083 98.7362C132.216 98.7362 132.32 98.6972 132.393 98.6191C132.467 98.541 132.504 98.433 132.504 98.2952C132.504 98.1619 132.467 98.0587 132.393 97.985C132.32 97.9116 132.218 97.8748 132.09 97.8748H131.669V98.7362H132.083ZM111.974 100.384C112.754 100.384 113.415 100.483 113.958 100.682C114.501 100.88 114.925 101.063 115.231 101.232C115.491 101.369 115.644 101.552 115.69 101.781C115.736 102.011 115.697 102.255 115.575 102.515L115.346 102.927C115.208 103.202 115.032 103.362 114.818 103.408C114.604 103.454 114.352 103.416 114.061 103.294C113.801 103.171 113.488 103.045 113.121 102.916C112.754 102.786 112.326 102.721 111.836 102.721C111.332 102.721 110.942 102.82 110.666 103.019C110.391 103.217 110.254 103.5 110.254 103.866C110.254 104.187 110.395 104.447 110.678 104.645C110.961 104.844 111.32 105.02 111.756 105.172C112.192 105.325 112.658 105.489 113.155 105.665C113.652 105.841 114.119 106.066 114.554 106.341C114.99 106.616 115.35 106.967 115.632 107.395C115.915 107.823 116.057 108.365 116.057 109.022C116.057 109.541 115.954 110.018 115.747 110.454C115.541 110.889 115.242 111.267 114.853 111.588C114.463 111.909 113.992 112.161 113.442 112.344C112.891 112.527 112.28 112.619 111.607 112.619C110.659 112.619 109.86 112.481 109.21 112.206C108.56 111.931 108.059 111.672 107.707 111.427C107.448 111.275 107.302 111.084 107.272 110.855C107.241 110.625 107.31 110.381 107.478 110.121L107.753 109.709C107.922 109.465 108.109 109.327 108.315 109.297C108.522 109.266 108.77 109.327 109.061 109.48C109.336 109.633 109.692 109.804 110.127 109.995C110.563 110.186 111.079 110.282 111.676 110.282C112.18 110.282 112.578 110.175 112.868 109.961C113.159 109.747 113.304 109.457 113.304 109.09C113.304 108.77 113.163 108.514 112.88 108.323C112.597 108.132 112.238 107.956 111.802 107.796C111.366 107.635 110.9 107.464 110.403 107.28C109.906 107.097 109.439 106.868 109.003 106.593C108.568 106.318 108.208 105.967 107.925 105.539C107.642 105.111 107.501 104.561 107.501 103.889C107.501 103.324 107.619 102.82 107.857 102.377C108.094 101.934 108.415 101.567 108.82 101.277C109.225 100.987 109.699 100.766 110.242 100.613C110.785 100.46 111.362 100.384 111.974 100.384V100.384ZM77.8781 100.384C78.6581 100.384 79.3195 100.483 79.8623 100.682C80.4051 100.88 80.8295 101.063 81.1354 101.232C81.3953 101.369 81.5483 101.552 81.5941 101.781C81.64 102.011 81.6017 102.255 81.4794 102.515L81.2501 102.927C81.1125 103.202 80.9366 103.362 80.7224 103.408C80.5084 103.454 80.2561 103.416 79.9655 103.294C79.7056 103.171 79.3921 103.045 79.0251 102.916C78.6581 102.786 78.2299 102.721 77.7405 102.721C77.2359 102.721 76.8459 102.82 76.5707 103.019C76.2955 103.217 76.1578 103.5 76.1578 103.866C76.1578 104.187 76.2992 104.447 76.5822 104.645C76.8651 104.844 77.2245 105.02 77.6603 105.172C78.0961 105.325 78.5625 105.489 79.0594 105.665C79.5564 105.841 80.0229 106.066 80.4587 106.341C80.8945 106.616 81.2539 106.967 81.5367 107.395C81.8197 107.823 81.9611 108.365 81.9611 109.022C81.9611 109.541 81.8578 110.018 81.6514 110.454C81.445 110.889 81.1468 111.267 80.7569 111.588C80.3669 111.909 79.8967 112.161 79.3462 112.344C78.7957 112.527 78.184 112.619 77.5111 112.619C76.5631 112.619 75.7641 112.481 75.1141 112.206C74.4642 111.931 73.9635 111.672 73.6117 111.427C73.3518 111.275 73.2064 111.084 73.1759 110.855C73.1454 110.625 73.2142 110.381 73.3823 110.121L73.6576 109.709C73.8257 109.465 74.0132 109.327 74.2196 109.297C74.426 109.266 74.6746 109.327 74.9651 109.48C75.2404 109.633 75.5958 109.804 76.0316 109.995C76.4676 110.186 76.9836 110.282 77.5799 110.282C78.0847 110.282 78.4822 110.175 78.7728 109.961C79.0634 109.747 79.2086 109.457 79.2086 109.09C79.2086 108.77 79.0672 108.514 78.7842 108.323C78.5013 108.132 78.1419 107.956 77.7061 107.796C77.2703 107.635 76.8039 107.464 76.3068 107.28C75.81 107.097 75.3435 106.868 74.9077 106.593C74.4719 106.318 74.1125 105.967 73.8297 105.539C73.5467 105.111 73.4053 104.561 73.4053 103.889C73.4053 103.324 73.5238 102.82 73.7609 102.377C73.9978 101.934 74.319 101.567 74.7242 101.277C75.1295 100.987 75.6036 100.766 76.1463 100.613C76.6892 100.46 77.2665 100.384 77.8781 100.384V100.384ZM119.703 96.0763C120.345 96.0763 120.666 96.3971 120.666 97.0386V101.758C120.666 101.911 120.662 102.045 120.655 102.159C120.647 102.274 120.636 102.377 120.62 102.469C120.605 102.576 120.597 102.667 120.597 102.744H120.643C120.781 102.469 120.976 102.19 121.228 101.907C121.48 101.625 121.779 101.369 122.123 101.14C122.467 100.911 122.857 100.728 123.293 100.59C123.728 100.452 124.199 100.384 124.703 100.384C126.003 100.384 127.008 100.735 127.719 101.438C128.431 102.14 128.786 103.271 128.786 104.829V111.382C128.786 112.023 128.465 112.344 127.823 112.344H126.836C126.194 112.344 125.873 112.023 125.873 111.382V105.424C125.873 104.706 125.751 104.13 125.506 103.695C125.261 103.259 124.772 103.042 124.038 103.042C123.533 103.042 123.071 103.141 122.65 103.339C122.23 103.538 121.874 103.809 121.584 104.153C121.293 104.496 121.068 104.905 120.907 105.379C120.746 105.852 120.666 106.364 120.666 106.914V111.382C120.666 112.023 120.345 112.344 119.703 112.344H118.716C118.074 112.344 117.753 112.023 117.753 111.382V97.0386C117.753 96.3971 118.074 96.0763 118.716 96.0763H119.703ZM104.463 100.659C105.09 100.659 105.403 100.98 105.403 101.621V111.382C105.403 112.023 105.09 112.344 104.463 112.344H103.453C102.826 112.344 102.513 112.023 102.513 111.382V101.621C102.513 100.98 102.826 100.659 103.453 100.659H104.463ZM85.0001 100.659C85.5811 100.659 85.9252 100.941 86.0323 101.506L87.9132 108.334C87.9437 108.502 87.9705 108.655 87.9934 108.792C88.0164 108.93 88.0431 109.06 88.0738 109.182C88.1043 109.32 88.1272 109.449 88.1426 109.572H88.1885C88.2038 109.449 88.2267 109.32 88.2573 109.182C88.2878 109.06 88.3145 108.93 88.3375 108.792C88.3604 108.655 88.3949 108.502 88.4408 108.334L90.4135 101.506C90.5204 100.957 90.8722 100.682 91.4686 100.682H92.3401C92.906 100.682 93.2578 100.957 93.3954 101.506L95.345 108.334C95.3909 108.502 95.4254 108.655 95.4483 108.792C95.4712 108.93 95.498 109.06 95.5285 109.182C95.5592 109.32 95.5821 109.449 95.5973 109.572H95.6432C95.6585 109.449 95.6815 109.32 95.712 109.182C95.7427 109.06 95.7694 108.93 95.7923 108.792C95.8153 108.655 95.8496 108.502 95.8955 108.334L97.7535 101.506C97.8911 100.941 98.2428 100.659 98.8086 100.659H99.8638C100.215 100.659 100.46 100.758 100.598 100.957C100.735 101.155 100.758 101.415 100.667 101.736L97.6618 111.542C97.5088 112.077 97.1494 112.344 96.5837 112.344H95.0468C94.4658 112.344 94.1064 112.069 93.9688 111.519L92.2025 105.677C92.1567 105.524 92.1184 105.371 92.0878 105.218C92.0573 105.065 92.0266 104.928 91.9961 104.806C91.9656 104.668 91.9426 104.538 91.9273 104.416H91.8814C91.8509 104.538 91.8202 104.668 91.7897 104.806C91.7591 104.928 91.7284 105.065 91.6979 105.218C91.6674 105.371 91.6291 105.524 91.5832 105.677L89.817 111.519C89.6793 112.069 89.3277 112.344 88.7619 112.344H87.1793C86.6286 112.344 86.277 112.077 86.124 111.542L83.0962 101.736C83.0045 101.415 83.0312 101.155 83.1766 100.957C83.3218 100.758 83.5627 100.659 83.899 100.659H85.0001Z" fill="#4A4A49"/>
<defs>
<linearGradient id="paint0_linear" x1="126.196" y1="61.8642" x2="115.37" y2="29.0318" gradientUnits="userSpaceOnUse">
<stop stop-color="#EF2131"/>
<stop offset="1" stop-color="#FECF2C"/>
</linearGradient>
<linearGradient id="paint1_linear" x1="112.152" y1="35.9379" x2="88.7862" y2="84.5403" gradientUnits="userSpaceOnUse">
<stop stop-color="#FBC52C"/>
<stop offset="0.26" stop-color="#F87130"/>
<stop offset="0.56" stop-color="#EF52E2"/>
<stop offset="1" stop-color="#661EEC"/>
</linearGradient>
<linearGradient id="paint2_linear" x1="74.5194" y1="41.5374" x2="84.8704" y2="73.5866" gradientUnits="userSpaceOnUse">
<stop stop-color="#78F6D8"/>
<stop offset="0.27" stop-color="#77D1F6"/>
<stop offset="0.55" stop-color="#70A4F3"/>
<stop offset="1" stop-color="#661EEC"/>
</linearGradient>
<linearGradient id="paint3_linear" x1="88.4409" y1="67.0465" x2="111.618" y2="18.6244" gradientUnits="userSpaceOnUse">
<stop stop-color="#536EED"/>
<stop offset="0.25" stop-color="#54C3EC"/>
<stop offset="0.56" stop-color="#64D769"/>
<stop offset="1" stop-color="#FECF2C"/>
</linearGradient>
</defs>
</svg>
