<svg width="56" height="45" viewBox="0 0 56 45" fill="none" xmlns="http://www.w3.org/2000/svg">
<rect x="0.375" y="0.875" width="55.25" height="43.25" rx="1.625" fill="white" stroke="#A3A3A3" stroke-width="0.75"/>
<path d="M50 29.3577V29.4219H46.6639C46.5998 29.4219 46.5356 29.4219 46.5356 29.2936C46.4073 28.652 46.279 28.0746 46.1507 27.4331C46.1507 27.3689 46.0865 27.3047 46.0224 27.3047H41.4673C41.4031 27.3047 41.339 27.3047 41.339 27.4331C41.1465 28.0746 40.8899 28.652 40.6332 29.2936C40.6332 29.3577 40.5691 29.4219 40.5049 29.4219H36.7197L36.7839 29.2936C38.1953 26.1499 39.6067 22.9421 41.0182 19.7985C41.4673 18.8361 41.9164 17.8096 42.3013 16.8473C42.4938 16.3982 42.8145 16.0774 43.2636 15.9491C43.5844 15.8208 43.9052 15.8208 44.226 15.8208H47.0489V15.9491L48.3961 22.0439C48.8452 24.1611 49.3585 26.2782 49.8076 28.4595C49.8717 28.7162 49.9359 29.037 50 29.3577ZM42.3655 24.6102H45.4449C45.06 22.878 44.6751 21.2099 44.3543 19.4777C43.7127 21.2099 43.0712 22.878 42.3655 24.6102ZM34.7309 15.5C34.8592 15.5 34.9875 15.5 35.0516 15.5642C35.8215 15.6283 36.6555 15.8208 37.3613 16.0774H37.4254C37.233 17.0397 37.1046 18.0662 36.9122 19.0286C36.7197 18.9644 36.5914 18.9003 36.4631 18.8361C35.5007 18.4512 34.4101 18.2587 33.3194 18.387C32.8703 18.4512 32.4212 18.5153 32.0363 18.8361C31.7797 19.0286 31.5872 19.2852 31.6514 19.6702C31.6514 19.9268 31.8438 20.1192 31.9721 20.2476C32.2929 20.5683 32.6779 20.7608 33.0628 20.9533C33.6402 21.2741 34.1535 21.5307 34.7309 21.7873C35.3724 22.1081 35.8857 22.5572 36.2706 23.1987C36.7197 23.8403 36.848 24.546 36.7839 25.3801C36.5914 27.0481 35.6932 28.1388 34.2818 28.8445C33.5119 29.2294 32.6779 29.486 31.7797 29.6144C31.5231 29.6144 31.2664 29.6785 31.074 29.6785H29.5984C29.4701 29.6785 29.4059 29.6785 29.2776 29.6144C28.3152 29.5502 27.4171 29.3577 26.5189 29.1011C26.3906 29.037 26.2622 28.9728 26.1339 28.9728L26.6472 25.8933C26.7113 25.8933 26.7113 25.8933 26.7755 25.9575C27.4171 26.2782 28.0586 26.5349 28.7643 26.6632C29.6625 26.8556 30.4966 26.9198 31.3947 26.7915C31.7797 26.7273 32.1005 26.599 32.4212 26.3424C32.8703 26.0216 32.9986 25.5084 32.8062 25.0593C32.6779 24.8668 32.5496 24.6743 32.2929 24.546C31.908 24.2894 31.4589 24.0328 31.074 23.8403C30.4324 23.5195 29.7908 23.1987 29.1493 22.7496C28.636 22.3647 28.2511 21.9156 27.9303 21.3382C27.6095 20.6325 27.6095 19.8626 27.802 19.0927C28.0586 18.1304 28.7002 17.3605 29.4701 16.7831C30.3682 16.1416 31.3947 15.8208 32.4212 15.6925C32.742 15.6283 32.9986 15.6283 33.3194 15.5642H33.3836C33.8968 15.5 34.2818 15.5 34.7309 15.5ZM7.91357 17.553H7.97773C9.83826 18.6437 11.378 20.0551 12.4687 21.9156C12.6611 22.2364 12.7894 22.6213 12.9819 22.9421C12.9819 22.9421 12.9819 23.0063 13.0461 23.0704C13.1744 23.5837 13.2385 24.0328 13.3669 24.546C13.3669 24.6743 13.431 24.8668 13.4952 24.9951C13.4952 24.931 13.5593 24.8668 13.5593 24.8668C14.7141 21.8515 15.8689 18.8361 17.0879 15.8208H21.0014C21.0014 15.8208 21.0014 15.8849 20.9373 15.9491C19.0126 20.44 17.0879 24.931 15.2274 29.3577C15.2274 29.4219 15.1632 29.486 15.0991 29.486H11.2497C11.1855 29.1653 11.0572 28.9086 10.9931 28.5879C9.96657 24.9951 9.00423 21.3382 7.97773 17.7455C7.91357 17.6813 7.91357 17.6172 7.91357 17.553ZM22.5412 15.7566H26.2622C26.1981 16.0132 26.1981 16.2057 26.1339 16.4623L25.5565 19.9268L24.9791 23.3912L24.4017 26.8556C24.2734 27.6897 24.0809 28.5237 23.9526 29.3577C23.9526 29.486 23.8885 29.486 23.8243 29.486H20.2316C21.0014 24.8668 21.7713 20.3117 22.5412 15.7566Z" fill="#182E66"/>
<path d="M4 16.0128C4 15.9486 4 15.8845 4.06416 15.8203H9.96653C10.2232 15.8203 10.5439 15.8845 10.8006 15.9486C11.3138 16.0769 11.6346 16.526 11.7629 17.0393C12.212 19.0281 12.5969 21.0811 13.046 23.07V23.1983C13.046 23.1341 13.046 23.1341 12.9819 23.07C12.7894 22.7492 12.6611 22.3642 12.4686 22.0435C11.378 20.1829 9.90237 18.7715 7.97768 17.6808H7.91353C7.91353 17.6808 7.84937 17.6167 7.78522 17.6167C6.56625 16.9751 5.28312 16.526 4 16.2053V16.0128Z" fill="#182E66"/>
</svg>
